<mxfile host="app.diagrams.net" modified="2023-11-05T13:56:22.426Z" agent="Mozilla/5.0 (Macintosh; Intel Mac OS X 10_15_7) AppleWebKit/537.36 (KHTML, like Gecko) Chrome/119.0.0.0 Safari/537.36" etag="JYygl7p7GLQRxgUdeAYd" version="21.6.8" type="github">
  <diagram name="페이지-1" id="dHtTjX74jyADIkVAMheB">
    <mxGraphModel dx="918" dy="956" grid="1" gridSize="10" guides="1" tooltips="1" connect="1" arrows="1" fold="1" page="1" pageScale="1" pageWidth="1600" pageHeight="1200" math="0" shadow="0">
      <root>
        <mxCell id="0" />
        <mxCell id="1" parent="0" />
      </root>
    </mxGraphModel>
  </diagram>
</mxfile>
